<svg height="512" viewBox="0 0 512 512" width="512" xmlns="http://www.w3.org/2000/svg"><g fill="#ffd9dc"><path d="m456 240s32-8.842 32-30.72c0-9.544-8.059-17.28-18-17.28a18.167 18.167 0 0 0 -14 6.541 18.167 18.167 0 0 0 -14-6.541c-9.941 0-18 7.736-18 17.28 0 21.878 32 30.72 32 30.72z"/><path d="m120 100.8s48-14.147 48-49.152c0-15.27-12.088-27.648-27-27.648a26.614 26.614 0 0 0 -21 10.466 26.614 26.614 0 0 0 -21-10.466c-14.912 0-27 12.378-27 27.648 0 35.005 48 49.152 48 49.152z"/><path d="m437.8 24 16.625 33.686 37.175 5.402-26.9 26.221 6.35 37.024-33.25-17.48-33.25 17.48 6.35-37.024-26.9-26.221 37.175-5.402z"/><path d="m62.2 144 12.917 26.172 28.883 4.197-20.9 20.373 4.934 28.766-25.834-13.582-25.834 13.582 4.934-28.766-20.9-20.373 28.883-4.197z"/></g><path d="m353.044 272.663-27.368-92.017-46.008 13.684 27.368 92.016a81.934 81.934 0 0 0 -6.486 62.378l42.779 143.832a16 16 0 0 0 19.9 10.775l61.344-18.245a16 16 0 0 0 10.775-19.9l-42.782-143.829a81.938 81.938 0 0 0 -39.522-48.694z" fill="#efc465"/><path d="m392.566 321.357a81.927 81.927 0 0 0 -19.443-33.372c-.375 0-.748.015-1.123.015a107.6 107.6 0 0 1 -72.894-28.316l7.93 26.662a81.937 81.937 0 0 0 -6.486 62.379l42.779 143.832a16 16 0 0 0 19.9 10.775l61.344-18.245a16 16 0 0 0 10.775-19.9z" fill="#e2b65d"/><path d="m158.956 272.663 27.368-92.017 46.008 13.684-27.368 92.016a81.934 81.934 0 0 1 6.486 62.378l-42.779 143.833a16 16 0 0 1 -19.9 10.775l-61.341-18.245a16 16 0 0 1 -10.775-19.9l42.779-143.832a81.938 81.938 0 0 1 39.522-48.694z" fill="#efc465"/><path d="m140 288c-.375 0-.748-.011-1.123-.015a81.927 81.927 0 0 0 -19.443 33.372l-42.779 143.832a16 16 0 0 0 10.775 19.9l61.344 18.245a16 16 0 0 0 19.9-10.775l42.776-143.834a81.937 81.937 0 0 0 -6.486-62.379l7.93-26.662a107.6 107.6 0 0 1 -72.894 28.316z" fill="#e2b65d"/><path d="m95.959 304.091 12.028-40.091a26.234 26.234 0 0 1 25.724 31.379l-5.9 29.483a16 16 0 0 0 15.689 19.138h68.483a16 16 0 0 1 16 16v32a80 80 0 0 1 -80 80h-107.983v-128h2.321a56 56 0 0 0 53.638-39.909z" fill="#ffe4c2"/><path d="m227.987 392v-20.722a152.136 152.136 0 0 1 -187.987 84.974v15.748h107.987a80 80 0 0 0 80-80z" fill="#f2d1a5"/><circle cx="188" cy="212" fill="#f7eacd" r="12"/><path d="m0 328h40v160h-40z" fill="#ea8668"/><path d="m40 434.245a100.432 100.432 0 0 1 -40 35.573v18.182h40z" fill="#e57055"/><circle cx="28" cy="340" fill="#ffdcd1" r="12"/><path d="m416.041 304.091-12.028-40.091a26.234 26.234 0 0 0 -25.724 31.379l5.9 29.483a16 16 0 0 1 -15.689 19.138h-68.487a16 16 0 0 0 -16 16v32a80 80 0 0 0 80 80h107.987v-128h-2.321a56 56 0 0 1 -53.638-39.909z" fill="#ffe4c2"/><path d="m424 464a152.022 152.022 0 0 1 -139.987-92.722v20.722a80 80 0 0 0 80 80h107.987v-15.748a151.811 151.811 0 0 1 -48 7.748z" fill="#f2d1a5"/><path d="m472 328h40v160h-40z" fill="#ea8668"/><path d="m472 434.245v53.755h40v-18.182a100.432 100.432 0 0 1 -40-35.573z" fill="#e57055"/><circle cx="484" cy="340" fill="#ffdcd1" r="12"/><circle cx="324" cy="212" fill="#f7eacd" r="12"/><path d="m81.962 77.226c14.062 16.504 38.038 23.574 38.038 23.574s48-14.147 48-49.152a27.868 27.868 0 0 0 -9.037-20.635 59.987 59.987 0 0 1 -77 46.213z" fill="#ffccd2"/><path d="m438.577 231.933a68.874 68.874 0 0 0 17.423 8.067s32-8.842 32-30.72a16.733 16.733 0 0 0 -3.579-10.31 52.016 52.016 0 0 1 -45.844 32.963z" fill="#ffccd2"/><path d="m471.05 126.333-6.35-37.024 26.9-26.221-35.186-5.113a80.2 80.2 0 0 1 -47.343 42l-4.521 26.361 33.25-17.48z" fill="#ffccd2"/><path d="m88.034 223.508-4.934-28.766 20.9-20.373-28.1-4.083a80.283 80.283 0 0 1 -35.712 30.949l-3.821 22.273 25.833-13.581z" fill="#ffccd2"/><circle cx="92" cy="44" fill="#fff2f4" r="12"/><circle cx="412" cy="68" fill="#fff2f4" r="12"/><circle cx="40" cy="176" fill="#fff2f4" r="8"/><circle cx="440" cy="208" fill="#fff2f4" r="8"/><path d="m168.73 239.81a7.682 7.682 0 0 0 2.28.34 8.072 8.072 0 0 0 7.67-5.72 8.015 8.015 0 0 0 -5.39-9.95 8.142 8.142 0 0 0 -2.29-.34 8 8 0 0 0 -2.27 15.67z"/><path d="m242.281 188.943-61.344-18.243a8 8 0 0 0 -4.565 15.334l-3.912 13.156a8 8 0 1 0 15.34 4.56l3.911-13.155 30.67 9.122-26.034 87.53 1.579 2.914a73.926 73.926 0 0 1 8.156 45.839h-62.582a8 8 0 0 1 -7.844-9.569l5.892-29.461a73.212 73.212 0 0 1 21.222-17.27l2.9-1.57 3.89-13.03a8.015 8.015 0 0 0 -5.39-9.95 8.13 8.13 0 0 0 -2.29-.33 8.038 8.038 0 0 0 -7.66 5.72l-2.01 6.75a89.309 89.309 0 0 0 -12.855 9.218 34.271 34.271 0 0 0 -31.368-20.508h-5.952l-13.735 45.792a47.659 47.659 0 0 1 -40.3 33.876v-15.668h-40a8 8 0 0 0 0 16h24v144h-24a8 8 0 0 0 0 16h40v-16h99.987a88.1 88.1 0 0 0 16.536-1.565l-3.523 11.844a8.013 8.013 0 0 1 -9.952 5.383l-28.77-8.555a8 8 0 1 0 -4.56 15.336l28.771 8.557a23.992 23.992 0 0 0 29.849-16.158l6.562-22.07a88.5 88.5 0 0 0 35.008-27.4 7.965 7.965 0 0 0 .876-1.162 87.529 87.529 0 0 0 17.2-52.2v-32.01a24.029 24.029 0 0 0 -14.052-21.833 89.92 89.92 0 0 0 -8.388-52.626l24.17-81.263a8 8 0 0 0 4.562-15.336zm-22.294 171.057v8h-40a8 8 0 1 0 0 16h40v8a72.383 72.383 0 0 1 -.455 8h-39.545a8 8 0 1 0 0 16h35.872a71.821 71.821 0 0 1 -8.039 16h-35.833a8 8 0 1 0 0 16h21.185a71.647 71.647 0 0 1 -45.185 16h-99.987v-112.252a63.553 63.553 0 0 0 55.622-45.358l10.046-33.49a18.25 18.25 0 0 1 12.374 19.876v.034c-.048.333-.1.665-.171 1l-5.9 29.483a24 24 0 0 0 23.529 28.707h68.484a8.009 8.009 0 0 1 8.003 8z"/><path d="m504 480h-24v-144h24a8 8 0 0 0 0-16h-40v15.668a47.657 47.657 0 0 1 -40.3-33.876l-13.734-45.792h-5.952a34.275 34.275 0 0 0 -31.368 20.5 89.275 89.275 0 0 0 -12.858-9.217l-24.162-81.254a8 8 0 0 0 -4.563-15.335l-53.648 15.956-.025.006-.036.012-7.634 2.271a8 8 0 1 0 4.56 15.336l9.408 31.631a8.039 8.039 0 0 0 7.661 5.72 8.13 8.13 0 0 0 2.29-.33 8 8 0 0 0 5.38-9.95l-9.4-31.633 30.673-9.123 26.025 87.524 2.916 1.578a73.436 73.436 0 0 1 21.217 17.273l5.892 29.463a8 8 0 0 1 -7.842 9.572h-62.935a7.935 7.935 0 0 0 .065-2.23 73.8 73.8 0 0 1 4.979-36.27 8 8 0 0 0 -14.819-6.05v.01a89.423 89.423 0 0 0 -6.641 33.91 91.65 91.65 0 0 0 .58 10.21 8.041 8.041 0 0 0 .682 2.431 24.032 24.032 0 0 0 -14.397 21.989v32a87.534 87.534 0 0 0 17.2 52.2 8.068 8.068 0 0 0 .875 1.16 88.5 88.5 0 0 0 35.008 27.4l6.562 22.071a24.034 24.034 0 0 0 22.972 17.165 24.1 24.1 0 0 0 6.88-.996l28.769-8.555a8 8 0 1 0 -4.56-15.336l-28.771 8.555a8 8 0 0 1 -9.949-5.384l-3.522-11.845a88.124 88.124 0 0 0 16.536 1.565h99.986v16h40a8 8 0 0 0 0-16zm-40-16h-99.986a71.643 71.643 0 0 1 -45.185-16h21.185a8 8 0 0 0 0-16h-35.833a71.778 71.778 0 0 1 -8.039-16h35.872a8 8 0 0 0 0-16h-39.545a72.383 72.383 0 0 1 -.455-8v-8h40a8 8 0 0 0 0-16h-40v-8a8.009 8.009 0 0 1 8-8h68.486a24 24 0 0 0 23.534-28.707l-5.9-29.484a18.248 18.248 0 0 1 12.2-20.908l10.046 33.489a63.554 63.554 0 0 0 55.62 45.359z"/><path d="m300.479 272.3a8 8 0 0 0 .011-16 8.13 8.13 0 0 0 -2.29.33 8.015 8.015 0 0 0 -5.39 9.95 8.058 8.058 0 0 0 7.669 5.72z"/><path d="m256 96a8.011 8.011 0 0 0 8-8v-80a8 8 0 0 0 -16 0v80a8.011 8.011 0 0 0 8 8z"/><circle cx="256" cy="120" r="8"/><circle cx="256" cy="152" r="8"/><circle cx="216" cy="120" r="8"/><path d="m216 64a8.011 8.011 0 0 0 8-8v-48a8 8 0 0 0 -16 0v48a8.011 8.011 0 0 0 8 8z"/><circle cx="216" cy="88" r="8"/><path d="m296 64a8.011 8.011 0 0 0 8-8v-48a8 8 0 0 0 -16 0v48a8.011 8.011 0 0 0 8 8z"/><circle cx="296" cy="88" r="8"/><circle cx="296" cy="120" r="8"/><path d="m402.305 92.1-5.64 32.879a8 8 0 0 0 11.607 8.434l29.528-15.522 29.527 15.524a8 8 0 0 0 11.608-8.434l-5.635-32.881 23.888-23.286a8 8 0 0 0 -4.434-13.645l-33.013-4.8-14.767-29.91a8 8 0 0 0 -14.348 0l-14.764 29.915-33.012 4.8a8 8 0 0 0 -4.434 13.645zm20.02-26.5a8 8 0 0 0 6.024-4.376l9.451-19.15 9.451 19.15a8 8 0 0 0 6.023 4.376l21.134 3.071-15.292 14.91a8 8 0 0 0 -2.3 7.08l3.61 21.048-18.9-9.937a8 8 0 0 0 -7.445 0l-18.9 9.937 3.61-21.047a8 8 0 0 0 -2.3-7.081l-15.3-14.907z"/><path d="m32.705 197.535-4.224 24.621a8 8 0 0 0 11.608 8.433l22.111-11.625 22.111 11.625a8 8 0 0 0 11.607-8.433l-4.218-24.621 17.884-17.435a8 8 0 0 0 -4.434-13.645l-24.72-3.595-11.056-22.4a8 8 0 0 0 -14.348 0l-11.055 22.4-24.721 3.593a8 8 0 0 0 -4.434 13.647zm17.729-19.446a8 8 0 0 0 6.023-4.376l5.743-11.637 5.743 11.637a8 8 0 0 0 6.024 4.376l12.841 1.867-9.292 9.057a8 8 0 0 0 -2.3 7.081l2.194 12.79-11.486-6.039a8 8 0 0 0 -7.445 0l-11.487 6.039 2.194-12.79a8 8 0 0 0 -2.3-7.081l-9.292-9.057z"/><path d="m117.738 108.474 2.262.666 2.262-.666c2.194-.647 53.738-16.305 53.738-56.826 0-19.656-15.7-35.648-35-35.648a34.119 34.119 0 0 0 -21 7.24 34.119 34.119 0 0 0 -21-7.24c-19.3 0-35 15.992-35 35.648 0 40.521 51.544 56.179 53.738 56.826zm-18.738-76.474a18.662 18.662 0 0 1 14.7 7.392l6.3 8.066 6.3-8.066a18.662 18.662 0 0 1 14.7-7.392c10.477 0 19 8.814 19 19.648 0 24.665-31.239 37.58-40.011 40.719-8.782-3.117-39.989-15.94-39.989-40.719 0-10.834 8.523-19.648 19-19.648z"/><path d="m456 188.032a26.2 26.2 0 0 0 -14-4.032c-14.337 0-26 11.34-26 25.28 0 27.649 36.323 38 37.869 38.431l2.131.589 2.131-.589c1.546-.427 37.869-10.782 37.869-38.431 0-13.94-11.663-25.28-26-25.28a26.2 26.2 0 0 0 -14 4.032zm24 21.248c0 12.63-17.773 20.08-24.015 22.3-6.249-2.2-23.985-9.58-23.985-22.3 0-5.117 4.486-9.28 10-9.28a10.19 10.19 0 0 1 7.855 3.664l6.145 7.371 6.145-7.371a10.19 10.19 0 0 1 7.855-3.664c5.514 0 10 4.163 10 9.28z"/></svg>