<svg id="Capa_1" enable-background="new 0 0 512 512" height="512" viewBox="0 0 512 512" width="512" xmlns="http://www.w3.org/2000/svg"><g><g><path d="m395.565 55.236-43.041-43.041c-6.691-6.692-17.693-6.16-23.708 1.146l-72.871 88.51-72.872-88.51c-6.015-7.306-17.017-7.838-23.708-1.146l-43.041 43.041c-6.689 6.689-6.161 17.686 1.139 23.703l99.123 81.707h78.718l99.123-81.707c7.298-6.017 7.827-17.014 1.138-23.703z" fill="#b3e59f"/><path d="m272.029 111.792h-32.058c-17.705 0-32.058 14.353-32.058 32.058v32.058h96.173v-32.058c.001-17.705-14.352-32.058-32.057-32.058z" fill="#95d6a4"/><path d="m302.954 135.835h-93.908c-.667 2.576-1.133 5.23-1.133 8.014v32.058h96.173v-32.057c.001-2.784-.465-5.439-1.132-8.015z" fill="#78c2a4"/><path d="m424.303 504.5h-336.606c-8.853 0-16.029-7.176-16.029-16.029v-248.448h368.664v248.448c0 8.852-7.176 16.029-16.029 16.029z" fill="#ff8086"/><path d="m119.754 296.124h320.578v-56.101h-368.664v248.448c0 8.853 7.176 16.029 16.029 16.029h8.014v-184.332c0-13.279 10.765-24.044 24.043-24.044z" fill="#e5646e"/><path d="m440.332 272.081h-368.664c-8.853 0-16.029-7.176-16.029-16.029v-80.144c0-8.853 7.176-16.029 16.029-16.029h368.664c8.853 0 16.029 7.176 16.029 16.029v80.144c0 8.853-7.176 16.029-16.029 16.029z" fill="#ff9a9f"/><path d="m103.725 248.038c-13.279 0-24.043-10.765-24.043-24.043v-64.116h-8.014c-8.853 0-16.029 7.176-16.029 16.029v80.144c0 8.853 7.176 16.029 16.029 16.029h368.664c8.853 0 16.029-7.176 16.029-16.029v-8.014z" fill="#ff8086"/><path d="m223.942 159.879h64.116v128.231h-64.116z" fill="#b3e59f"/><path d="m223.942 272.081h64.116v232.419h-64.116z" fill="#95d6a4"/></g><path d="m440.371 152.306h-124.874l83.567-67.649c5.176-4.19 8.345-10.407 8.694-17.057s-2.151-13.165-6.86-17.874l-42.835-42.834c-4.709-4.709-11.234-7.208-17.873-6.86-6.65.35-12.867 3.518-17.057 8.694l-53.202 65.72c-2.606 3.219-2.109 7.942 1.11 10.548 3.219 2.605 7.942 2.109 10.548-1.11l53.203-65.72c1.541-1.904 3.738-3.023 6.184-3.152 2.451-.131 4.748.755 6.48 2.487l42.834 42.834c1.732 1.732 2.616 4.034 2.487 6.481s-1.248 4.643-3.152 6.184l-78.678 63.692c-1.353-7.447-4.786-14.178-9.689-19.553l44.211-44.211c2.929-2.929 2.929-7.678 0-10.606-2.929-2.929-7.678-2.929-10.606 0l-45.766 45.766c-5.17-2.482-10.959-3.875-17.067-3.875h-5.87l-77.293-95.485c-4.19-5.176-10.407-8.345-17.057-8.694-6.643-.347-13.165 2.151-17.873 6.86l-42.834 42.834c-4.709 4.709-7.209 11.224-6.86 17.874.349 6.649 3.518 12.867 8.694 17.057l83.567 67.649h-124.875c-12.976 0-23.532 10.556-23.532 23.532v80.162c0 10.354 6.724 19.16 16.032 22.3v210.168c0 12.976 10.557 23.532 23.532 23.532h336.678c12.976 0 23.532-10.557 23.532-23.532v-210.168c9.308-3.14 16.032-11.946 16.032-22.3v-80.161c0-12.976-10.556-23.533-23.532-23.533zm-143.774-8.532v8.532h-81.193v-8.532c0-13.545 11.02-24.564 24.564-24.564h32.064c13.545 0 24.565 11.019 24.565 24.564zm-16.033 353.226h-49.129v-329.694h49.129zm-161.342-430.186c-.128-2.447.755-4.749 2.487-6.481l42.834-42.834c1.732-1.732 4.029-2.619 6.48-2.487 2.446.129 4.643 1.248 6.185 3.152l69.656 86.046h-6.896c-6.108 0-11.897 1.393-17.067 3.875l-45.766-45.766c-2.929-2.929-7.678-2.929-10.606 0-2.929 2.929-2.929 7.678 0 10.606l44.211 44.211c-4.903 5.375-8.336 12.105-9.689 19.552l-78.678-63.691c-1.903-1.54-3.023-3.736-3.151-6.183zm-40.093 421.654v-208.936h112.742c4.142 0 7.5-3.358 7.5-7.5s-3.358-7.5-7.5-7.5h-120.242c-4.705 0-8.532-3.828-8.532-8.532v-80.161c0-4.705 3.828-8.532 8.532-8.532h144.807v329.693h-128.775c-4.705 0-8.532-3.828-8.532-8.532zm345.21 8.532h-128.775v-217.468h137.307v208.936c0 4.704-3.828 8.532-8.532 8.532zm24.564-241c0 4.705-3.828 8.532-8.532 8.532h-144.807v-97.226h144.807c4.705 0 8.532 3.827 8.532 8.532z"/></g></svg>