<?xml version="1.0" encoding="iso-8859-1"?>
<!-- Generator: Adobe Illustrator 19.0.0, SVG Export Plug-In . SVG Version: 6.00 Build 0)  -->
<svg version="1.1" id="Capa_1" xmlns="http://www.w3.org/2000/svg" xmlns:xlink="http://www.w3.org/1999/xlink" x="0px" y="0px"
	 viewBox="0 0 512 512" style="enable-background:new 0 0 512 512;" xml:space="preserve">
<path style="fill:#4DBBEB;" d="M414.508,10c0,0,17.79,69.37,10.23,90.13c-4.86,13.35-16.08,22.53-28.99,25.38
	c-7.17,1.6-14.86,1.23-22.28-1.47c-7.69-2.8-14-7.72-18.51-13.85c-7.67-10.41-10.15-24.35-5.4-37.42
	C357.118,52.01,414.508,10,414.508,10z"/>
<path style="fill:#FD3C65;" d="M386.798,216c11.05,0,20,8.95,20,20c0,5.52-2.24,10.52-5.86,14.14s-8.62,5.86-14.14,5.86h-280
	c-11.05,0-20-8.95-20-20c0-5.52,2.24-10.52,5.86-14.14s8.62-5.86,14.14-5.86h7.63h82.82h19.55h80h2.76h80.13H386.798z"/>
<path style="fill:#E2E2E2;" d="M395.748,125.51v0.01c-1.16,22.2-6.71,55.6-16.06,90.48h-80.13c18.92-44.36,38.67-83.74,55.4-105.81
	c4.51,6.13,10.82,11.05,18.51,13.85C380.888,126.74,388.578,127.11,395.748,125.51z"/>
<path style="fill:#FD3C65;" d="M386.798,256v206c0,22.09-17.91,40-40,40h-200c-22.09,0-40-17.91-40-40V256H386.798z"/>
<polygon style="fill:#FEB756;" points="296.798,173 296.798,216 216.798,216 216.798,10 296.798,10 296.798,53 296.798,93 
	296.798,133 "/>
<path style="fill:#4DBBEB;" d="M178.238,142.04l19.01,73.96h-82.82l-13.46-53.25l-15.53-57.96c27.05,15.62,61.65,6.35,77.27-20.7
	L178.238,142.04z"/>
<path style="fill:#FFF5CD;" d="M103.368,14.17l59.34,69.92c-15.62,27.05-50.22,36.32-77.27,20.7L103.368,14.17z"/>
<path d="M146.798,286c-5.52,0-10,4.48-10,10s4.48,10,10,10s10-4.48,10-10S152.318,286,146.798,286z"/>
<path d="M146.798,326c-5.523,0-10,4.477-10,10v126c0,5.523,4.477,10,10,10s10-4.477,10-10V336
	C156.798,330.477,152.32,326,146.798,326z"/>
<path d="M424.194,7.516c-0.824-3.215-3.19-5.812-6.314-6.931c-3.125-1.118-6.601-0.615-9.278,1.345
	c-9.993,7.315-60.255,44.942-68.442,67.424c-4.867,13.391-3.761,28.008,2.773,40.39c-12.26,17.586-24.959,41.868-36.135,65.593V10
	c0-5.523-4.478-10-10-10h-80c-5.523,0-10,4.477-10,10v196h-1.795l-17.08-66.449c-0.008-0.033-0.017-0.066-0.026-0.099l-15.53-57.95
	c-0.001-0.002-0.001-0.004-0.002-0.006c-0.09-0.333-0.199-0.661-0.323-0.984c-0.038-0.099-0.084-0.194-0.125-0.292
	c-0.094-0.225-0.192-0.447-0.303-0.665c-0.054-0.106-0.113-0.208-0.171-0.312c-0.113-0.205-0.232-0.407-0.36-0.604
	c-0.065-0.099-0.132-0.196-0.2-0.293c-0.137-0.195-0.281-0.384-0.432-0.57c-0.042-0.051-0.076-0.107-0.119-0.157l-59.34-69.92
	c-2.484-2.927-6.424-4.173-10.139-3.208s-6.55,3.972-7.295,7.738l-17.93,90.62c-0.013,0.067-0.016,0.135-0.028,0.201
	c-0.046,0.261-0.084,0.522-0.109,0.784c-0.011,0.111-0.018,0.222-0.025,0.333c-0.015,0.25-0.021,0.498-0.018,0.747
	c0.001,0.116,0.002,0.232,0.008,0.348c0.012,0.255,0.037,0.508,0.069,0.761c0.013,0.104,0.021,0.207,0.037,0.31
	c0.055,0.353,0.125,0.702,0.217,1.047l15.512,57.892l10.406,41.166c-6.07,1.035-11.665,3.905-16.11,8.35
	c-5.667,5.668-8.789,13.201-8.789,21.211c0,13.036,8.361,24.152,20,28.28V462c0,27.57,22.43,50,50,50h200c27.57,0,50-22.43,50-50
	V264.296c4.168-1.471,7.991-3.866,11.211-7.085c5.668-5.668,8.789-13.201,8.789-21.211c0-14.612-10.504-26.811-24.356-29.46
	c6.523-26.504,11.121-52.843,12.818-73.509c13.35-5.163,23.88-15.762,28.875-29.48C442.338,81.025,427.294,19.601,424.194,7.516z
	 M314.796,206c15.271-34.604,29.376-61.908,41.443-80.245c4.135,3.253,8.78,5.852,13.808,7.682
	c4.806,1.749,9.801,2.741,14.824,2.971c-2.005,19.938-6.599,44.761-12.911,69.592H314.796z M226.798,20h60v23h-20
	c-5.522,0-10,4.477-10,10s4.478,10,10,10h20v20h-20c-5.522,0-10,4.477-10,10s4.478,10,10,10h20v20h-20c-5.522,0-10,4.477-10,10
	c0,5.523,4.478,10,10,10h20v20h-20c-5.522,0-10,4.477-10,10s4.478,10,10,10h20v23h-60V20z M122.214,206l-11.552-45.701
	c-0.011-0.046-0.023-0.092-0.036-0.137l-10.495-39.168c4.43,0.928,8.942,1.403,13.479,1.403c5.781,0,11.602-0.76,17.336-2.296
	c10.238-2.742,19.46-7.778,27.134-14.647l10.486,39.127L184.353,206H122.214z M109.154,36.443l41.027,48.342
	c-6.167,7.791-14.635,13.379-24.41,15.997c-9.737,2.609-19.822,2.017-29.028-1.61L109.154,36.443z M346.798,492h-200
	c-16.542,0-30-13.458-30-30V266h260v196C376.798,478.542,363.34,492,346.798,492z M396.798,236c0,2.668-1.041,5.179-2.931,7.068
	c-1.891,1.891-4.401,2.932-7.069,2.932h-280c-5.514,0-10-4.486-10-10c0-2.668,1.041-5.179,2.931-7.068
	c1.891-1.891,4.401-2.932,7.069-2.932h90.385c0.02,0,0.039,0.002,0.058,0.002c0.013,0,0.026-0.002,0.039-0.002h102.224
	c0.016,0,0.033,0.002,0.049,0.002c0.011,0,0.022-0.002,0.034-0.002h80.07c0.012,0,0.025,0.002,0.037,0.002
	c0.02,0,0.039-0.002,0.059-0.002h7.046C392.311,226,396.798,230.486,396.798,236z M415.341,96.709
	c-3.529,9.692-11.659,16.809-21.771,19.041c-5.533,1.234-11.301,0.851-16.682-1.106c-5.575-2.03-10.374-5.62-13.876-10.379
	c-0.001-0.002-0.003-0.004-0.004-0.006c-5.978-8.113-7.492-18.607-4.055-28.066c3.748-10.292,28.141-32.238,49.371-48.931
	C414.164,53.8,419.082,86.436,415.341,96.709z"/>
<g>
</g>
<g>
</g>
<g>
</g>
<g>
</g>
<g>
</g>
<g>
</g>
<g>
</g>
<g>
</g>
<g>
</g>
<g>
</g>
<g>
</g>
<g>
</g>
<g>
</g>
<g>
</g>
<g>
</g>
</svg>
